<?xml version="1.0" encoding="utf-8" standalone="no"?>
<!DOCTYPE svg PUBLIC "-//W3C//DTD SVG 1.1//EN"
  "http://www.w3.org/Graphics/SVG/1.1/DTD/svg11.dtd">
<svg xmlns:xlink="http://www.w3.org/1999/xlink" width="858.5415pt" height="427.3625pt" viewBox="0 0 858.5415 427.3625" xmlns="http://www.w3.org/2000/svg" version="1.1">
 <metadata>
  <rdf:RDF xmlns:dc="http://purl.org/dc/elements/1.1/" xmlns:cc="http://creativecommons.org/ns#" xmlns:rdf="http://www.w3.org/1999/02/22-rdf-syntax-ns#">
   <cc:Work>
    <dc:type rdf:resource="http://purl.org/dc/dcmitype/StillImage"/>
    <dc:date>2025-02-07T00:02:47.609173</dc:date>
    <dc:format>image/svg+xml</dc:format>
    <dc:creator>
     <cc:Agent>
      <dc:title>Matplotlib v3.10.0, https://matplotlib.org/</dc:title>
     </cc:Agent>
    </dc:creator>
   </cc:Work>
  </rdf:RDF>
 </metadata>
 <defs>
  <style type="text/css">*{stroke-linejoin: round; stroke-linecap: butt}</style>
 </defs>
 <g id="figure_1">
  <g id="patch_1">
   <path d="M 0 427.3625 
L 858.5415 427.3625 
L 858.5415 0 
L 0 0 
z
" style="fill: #ffffff"/>
  </g>
  <g id="axes_1">
   <g id="patch_2">
    <path d="M 50.7075 387.732 
L 424.5255 387.732 
L 424.5255 32.976 
L 50.7075 32.976 
z
" style="fill: #ffffff"/>
   </g>
   <g id="matplotlib.axis_1">
    <g id="xtick_1">
     <g id="line2d_1">
      <path d="M 67.699227 387.732 
L 67.699227 32.976 
" clip-path="url(#p1a6f7e61e1)" style="fill: none; stroke: #cccccc; stroke-width: 0.8; stroke-linecap: round"/>
     </g>
     <g id="text_1">
      <!-- 1-1P -->
      <g style="fill: #262626" transform="translate(57.859727 402.718625) scale(0.088 -0.088)">
       <defs>
        <path id="DejaVuSans-31" d="M 794 531 
L 1825 531 
L 1825 4091 
L 703 3866 
L 703 4441 
L 1819 4666 
L 2450 4666 
L 2450 531 
L 3481 531 
L 3481 0 
L 794 0 
L 794 531 
z
" transform="scale(0.015625)"/>
        <path id="DejaVuSans-2d" d="M 313 2009 
L 1997 2009 
L 1997 1497 
L 313 1497 
L 313 2009 
z
" transform="scale(0.015625)"/>
        <path id="DejaVuSans-50" d="M 1259 4147 
L 1259 2394 
L 2053 2394 
Q 2494 2394 2734 2622 
Q 2975 2850 2975 3272 
Q 2975 3691 2734 3919 
Q 2494 4147 2053 4147 
L 1259 4147 
z
M 628 4666 
L 2053 4666 
Q 2838 4666 3239 4311 
Q 3641 3956 3641 3272 
Q 3641 2581 3239 2228 
Q 2838 1875 2053 1875 
L 1259 1875 
L 1259 0 
L 628 0 
L 628 4666 
z
" transform="scale(0.015625)"/>
       </defs>
       <use xlink:href="#DejaVuSans-31"/>
       <use xlink:href="#DejaVuSans-2d" transform="translate(63.623047 0)"/>
       <use xlink:href="#DejaVuSans-31" transform="translate(99.707031 0)"/>
       <use xlink:href="#DejaVuSans-50" transform="translate(163.330078 0)"/>
      </g>
     </g>
    </g>
    <g id="xtick_2">
     <g id="line2d_2">
      <path d="M 124.338318 387.732 
L 124.338318 32.976 
" clip-path="url(#p1a6f7e61e1)" style="fill: none; stroke: #cccccc; stroke-width: 0.8; stroke-linecap: round"/>
     </g>
     <g id="text_2">
      <!-- 2-2P -->
      <g style="fill: #262626" transform="translate(114.498818 402.718625) scale(0.088 -0.088)">
       <defs>
        <path id="DejaVuSans-32" d="M 1228 531 
L 3431 531 
L 3431 0 
L 469 0 
L 469 531 
Q 828 903 1448 1529 
Q 2069 2156 2228 2338 
Q 2531 2678 2651 2914 
Q 2772 3150 2772 3378 
Q 2772 3750 2511 3984 
Q 2250 4219 1831 4219 
Q 1534 4219 1204 4116 
Q 875 4013 500 3803 
L 500 4441 
Q 881 4594 1212 4672 
Q 1544 4750 1819 4750 
Q 2544 4750 2975 4387 
Q 3406 4025 3406 3419 
Q 3406 3131 3298 2873 
Q 3191 2616 2906 2266 
Q 2828 2175 2409 1742 
Q 1991 1309 1228 531 
z
" transform="scale(0.015625)"/>
       </defs>
       <use xlink:href="#DejaVuSans-32"/>
       <use xlink:href="#DejaVuSans-2d" transform="translate(63.623047 0)"/>
       <use xlink:href="#DejaVuSans-32" transform="translate(99.707031 0)"/>
       <use xlink:href="#DejaVuSans-50" transform="translate(163.330078 0)"/>
      </g>
     </g>
    </g>
    <g id="xtick_3">
     <g id="line2d_3">
      <path d="M 180.977409 387.732 
L 180.977409 32.976 
" clip-path="url(#p1a6f7e61e1)" style="fill: none; stroke: #cccccc; stroke-width: 0.8; stroke-linecap: round"/>
     </g>
     <g id="text_3">
      <!-- 3-3P -->
      <g style="fill: #262626" transform="translate(171.137909 402.718625) scale(0.088 -0.088)">
       <defs>
        <path id="DejaVuSans-33" d="M 2597 2516 
Q 3050 2419 3304 2112 
Q 3559 1806 3559 1356 
Q 3559 666 3084 287 
Q 2609 -91 1734 -91 
Q 1441 -91 1130 -33 
Q 819 25 488 141 
L 488 750 
Q 750 597 1062 519 
Q 1375 441 1716 441 
Q 2309 441 2620 675 
Q 2931 909 2931 1356 
Q 2931 1769 2642 2001 
Q 2353 2234 1838 2234 
L 1294 2234 
L 1294 2753 
L 1863 2753 
Q 2328 2753 2575 2939 
Q 2822 3125 2822 3475 
Q 2822 3834 2567 4026 
Q 2313 4219 1838 4219 
Q 1578 4219 1281 4162 
Q 984 4106 628 3988 
L 628 4550 
Q 988 4650 1302 4700 
Q 1616 4750 1894 4750 
Q 2613 4750 3031 4423 
Q 3450 4097 3450 3541 
Q 3450 3153 3228 2886 
Q 3006 2619 2597 2516 
z
" transform="scale(0.015625)"/>
       </defs>
       <use xlink:href="#DejaVuSans-33"/>
       <use xlink:href="#DejaVuSans-2d" transform="translate(63.623047 0)"/>
       <use xlink:href="#DejaVuSans-33" transform="translate(99.707031 0)"/>
       <use xlink:href="#DejaVuSans-50" transform="translate(163.330078 0)"/>
      </g>
     </g>
    </g>
    <g id="xtick_4">
     <g id="line2d_4">
      <path d="M 237.6165 387.732 
L 237.6165 32.976 
" clip-path="url(#p1a6f7e61e1)" style="fill: none; stroke: #cccccc; stroke-width: 0.8; stroke-linecap: round"/>
     </g>
     <g id="text_4">
      <!-- 4-4P -->
      <g style="fill: #262626" transform="translate(227.777 402.718625) scale(0.088 -0.088)">
       <defs>
        <path id="DejaVuSans-34" d="M 2419 4116 
L 825 1625 
L 2419 1625 
L 2419 4116 
z
M 2253 4666 
L 3047 4666 
L 3047 1625 
L 3713 1625 
L 3713 1100 
L 3047 1100 
L 3047 0 
L 2419 0 
L 2419 1100 
L 313 1100 
L 313 1709 
L 2253 4666 
z
" transform="scale(0.015625)"/>
       </defs>
       <use xlink:href="#DejaVuSans-34"/>
       <use xlink:href="#DejaVuSans-2d" transform="translate(63.623047 0)"/>
       <use xlink:href="#DejaVuSans-34" transform="translate(99.707031 0)"/>
       <use xlink:href="#DejaVuSans-50" transform="translate(163.330078 0)"/>
      </g>
     </g>
    </g>
    <g id="xtick_5">
     <g id="line2d_5">
      <path d="M 294.255591 387.732 
L 294.255591 32.976 
" clip-path="url(#p1a6f7e61e1)" style="fill: none; stroke: #cccccc; stroke-width: 0.8; stroke-linecap: round"/>
     </g>
     <g id="text_5">
      <!-- 5-5P -->
      <g style="fill: #262626" transform="translate(284.416091 402.718625) scale(0.088 -0.088)">
       <defs>
        <path id="DejaVuSans-35" d="M 691 4666 
L 3169 4666 
L 3169 4134 
L 1269 4134 
L 1269 2991 
Q 1406 3038 1543 3061 
Q 1681 3084 1819 3084 
Q 2600 3084 3056 2656 
Q 3513 2228 3513 1497 
Q 3513 744 3044 326 
Q 2575 -91 1722 -91 
Q 1428 -91 1123 -41 
Q 819 9 494 109 
L 494 744 
Q 775 591 1075 516 
Q 1375 441 1709 441 
Q 2250 441 2565 725 
Q 2881 1009 2881 1497 
Q 2881 1984 2565 2268 
Q 2250 2553 1709 2553 
Q 1456 2553 1204 2497 
Q 953 2441 691 2322 
L 691 4666 
z
" transform="scale(0.015625)"/>
       </defs>
       <use xlink:href="#DejaVuSans-35"/>
       <use xlink:href="#DejaVuSans-2d" transform="translate(63.623047 0)"/>
       <use xlink:href="#DejaVuSans-35" transform="translate(99.707031 0)"/>
       <use xlink:href="#DejaVuSans-50" transform="translate(163.330078 0)"/>
      </g>
     </g>
    </g>
    <g id="xtick_6">
     <g id="line2d_6">
      <path d="M 350.894682 387.732 
L 350.894682 32.976 
" clip-path="url(#p1a6f7e61e1)" style="fill: none; stroke: #cccccc; stroke-width: 0.8; stroke-linecap: round"/>
     </g>
     <g id="text_6">
      <!-- 6-6P -->
      <g style="fill: #262626" transform="translate(341.055182 402.718625) scale(0.088 -0.088)">
       <defs>
        <path id="DejaVuSans-36" d="M 2113 2584 
Q 1688 2584 1439 2293 
Q 1191 2003 1191 1497 
Q 1191 994 1439 701 
Q 1688 409 2113 409 
Q 2538 409 2786 701 
Q 3034 994 3034 1497 
Q 3034 2003 2786 2293 
Q 2538 2584 2113 2584 
z
M 3366 4563 
L 3366 3988 
Q 3128 4100 2886 4159 
Q 2644 4219 2406 4219 
Q 1781 4219 1451 3797 
Q 1122 3375 1075 2522 
Q 1259 2794 1537 2939 
Q 1816 3084 2150 3084 
Q 2853 3084 3261 2657 
Q 3669 2231 3669 1497 
Q 3669 778 3244 343 
Q 2819 -91 2113 -91 
Q 1303 -91 875 529 
Q 447 1150 447 2328 
Q 447 3434 972 4092 
Q 1497 4750 2381 4750 
Q 2619 4750 2861 4703 
Q 3103 4656 3366 4563 
z
" transform="scale(0.015625)"/>
       </defs>
       <use xlink:href="#DejaVuSans-36"/>
       <use xlink:href="#DejaVuSans-2d" transform="translate(63.623047 0)"/>
       <use xlink:href="#DejaVuSans-36" transform="translate(99.707031 0)"/>
       <use xlink:href="#DejaVuSans-50" transform="translate(163.330078 0)"/>
      </g>
     </g>
    </g>
    <g id="xtick_7">
     <g id="line2d_7">
      <path d="M 407.533773 387.732 
L 407.533773 32.976 
" clip-path="url(#p1a6f7e61e1)" style="fill: none; stroke: #cccccc; stroke-width: 0.8; stroke-linecap: round"/>
     </g>
     <g id="text_7">
      <!-- 7-7P -->
      <g style="fill: #262626" transform="translate(397.694273 402.718625) scale(0.088 -0.088)">
       <defs>
        <path id="DejaVuSans-37" d="M 525 4666 
L 3525 4666 
L 3525 4397 
L 1831 0 
L 1172 0 
L 2766 4134 
L 525 4134 
L 525 4666 
z
" transform="scale(0.015625)"/>
       </defs>
       <use xlink:href="#DejaVuSans-37"/>
       <use xlink:href="#DejaVuSans-2d" transform="translate(63.623047 0)"/>
       <use xlink:href="#DejaVuSans-37" transform="translate(99.707031 0)"/>
       <use xlink:href="#DejaVuSans-50" transform="translate(163.330078 0)"/>
      </g>
     </g>
    </g>
    <g id="text_8">
     <!-- Point Pairs -->
     <g style="fill: #262626" transform="translate(206.53275 417.666875) scale(0.12 -0.12)">
      <defs>
       <path id="DejaVuSans-6f" d="M 1959 3097 
Q 1497 3097 1228 2736 
Q 959 2375 959 1747 
Q 959 1119 1226 758 
Q 1494 397 1959 397 
Q 2419 397 2687 759 
Q 2956 1122 2956 1747 
Q 2956 2369 2687 2733 
Q 2419 3097 1959 3097 
z
M 1959 3584 
Q 2709 3584 3137 3096 
Q 3566 2609 3566 1747 
Q 3566 888 3137 398 
Q 2709 -91 1959 -91 
Q 1206 -91 779 398 
Q 353 888 353 1747 
Q 353 2609 779 3096 
Q 1206 3584 1959 3584 
z
" transform="scale(0.015625)"/>
       <path id="DejaVuSans-69" d="M 603 3500 
L 1178 3500 
L 1178 0 
L 603 0 
L 603 3500 
z
M 603 4863 
L 1178 4863 
L 1178 4134 
L 603 4134 
L 603 4863 
z
" transform="scale(0.015625)"/>
       <path id="DejaVuSans-6e" d="M 3513 2113 
L 3513 0 
L 2938 0 
L 2938 2094 
Q 2938 2591 2744 2837 
Q 2550 3084 2163 3084 
Q 1697 3084 1428 2787 
Q 1159 2491 1159 1978 
L 1159 0 
L 581 0 
L 581 3500 
L 1159 3500 
L 1159 2956 
Q 1366 3272 1645 3428 
Q 1925 3584 2291 3584 
Q 2894 3584 3203 3211 
Q 3513 2838 3513 2113 
z
" transform="scale(0.015625)"/>
       <path id="DejaVuSans-74" d="M 1172 4494 
L 1172 3500 
L 2356 3500 
L 2356 3053 
L 1172 3053 
L 1172 1153 
Q 1172 725 1289 603 
Q 1406 481 1766 481 
L 2356 481 
L 2356 0 
L 1766 0 
Q 1100 0 847 248 
Q 594 497 594 1153 
L 594 3053 
L 172 3053 
L 172 3500 
L 594 3500 
L 594 4494 
L 1172 4494 
z
" transform="scale(0.015625)"/>
       <path id="DejaVuSans-20" transform="scale(0.015625)"/>
       <path id="DejaVuSans-61" d="M 2194 1759 
Q 1497 1759 1228 1600 
Q 959 1441 959 1056 
Q 959 750 1161 570 
Q 1363 391 1709 391 
Q 2188 391 2477 730 
Q 2766 1069 2766 1631 
L 2766 1759 
L 2194 1759 
z
M 3341 1997 
L 3341 0 
L 2766 0 
L 2766 531 
Q 2569 213 2275 61 
Q 1981 -91 1556 -91 
Q 1019 -91 701 211 
Q 384 513 384 1019 
Q 384 1609 779 1909 
Q 1175 2209 1959 2209 
L 2766 2209 
L 2766 2266 
Q 2766 2663 2505 2880 
Q 2244 3097 1772 3097 
Q 1472 3097 1187 3025 
Q 903 2953 641 2809 
L 641 3341 
Q 956 3463 1253 3523 
Q 1550 3584 1831 3584 
Q 2591 3584 2966 3190 
Q 3341 2797 3341 1997 
z
" transform="scale(0.015625)"/>
       <path id="DejaVuSans-72" d="M 2631 2963 
Q 2534 3019 2420 3045 
Q 2306 3072 2169 3072 
Q 1681 3072 1420 2755 
Q 1159 2438 1159 1844 
L 1159 0 
L 581 0 
L 581 3500 
L 1159 3500 
L 1159 2956 
Q 1341 3275 1631 3429 
Q 1922 3584 2338 3584 
Q 2397 3584 2469 3576 
Q 2541 3569 2628 3553 
L 2631 2963 
z
" transform="scale(0.015625)"/>
       <path id="DejaVuSans-73" d="M 2834 3397 
L 2834 2853 
Q 2591 2978 2328 3040 
Q 2066 3103 1784 3103 
Q 1356 3103 1142 2972 
Q 928 2841 928 2578 
Q 928 2378 1081 2264 
Q 1234 2150 1697 2047 
L 1894 2003 
Q 2506 1872 2764 1633 
Q 3022 1394 3022 966 
Q 3022 478 2636 193 
Q 2250 -91 1575 -91 
Q 1294 -91 989 -36 
Q 684 19 347 128 
L 347 722 
Q 666 556 975 473 
Q 1284 391 1588 391 
Q 1994 391 2212 530 
Q 2431 669 2431 922 
Q 2431 1156 2273 1281 
Q 2116 1406 1581 1522 
L 1381 1569 
Q 847 1681 609 1914 
Q 372 2147 372 2553 
Q 372 3047 722 3315 
Q 1072 3584 1716 3584 
Q 2034 3584 2315 3537 
Q 2597 3491 2834 3397 
z
" transform="scale(0.015625)"/>
      </defs>
      <use xlink:href="#DejaVuSans-50"/>
      <use xlink:href="#DejaVuSans-6f" transform="translate(56.677734 0)"/>
      <use xlink:href="#DejaVuSans-69" transform="translate(117.859375 0)"/>
      <use xlink:href="#DejaVuSans-6e" transform="translate(145.642578 0)"/>
      <use xlink:href="#DejaVuSans-74" transform="translate(209.021484 0)"/>
      <use xlink:href="#DejaVuSans-20" transform="translate(248.230469 0)"/>
      <use xlink:href="#DejaVuSans-50" transform="translate(280.017578 0)"/>
      <use xlink:href="#DejaVuSans-61" transform="translate(335.820312 0)"/>
      <use xlink:href="#DejaVuSans-69" transform="translate(397.099609 0)"/>
      <use xlink:href="#DejaVuSans-72" transform="translate(424.882812 0)"/>
      <use xlink:href="#DejaVuSans-73" transform="translate(465.996094 0)"/>
     </g>
    </g>
   </g>
   <g id="matplotlib.axis_2">
    <g id="ytick_1">
     <g id="line2d_8">
      <path d="M 50.7075 360.448998 
L 424.5255 360.448998 
" clip-path="url(#p1a6f7e61e1)" style="fill: none; stroke: #cccccc; stroke-width: 0.8; stroke-linecap: round"/>
     </g>
     <g id="text_9">
      <!-- 0.75 -->
      <g style="fill: #262626" transform="translate(22.81375 363.792311) scale(0.088 -0.088)">
       <defs>
        <path id="DejaVuSans-30" d="M 2034 4250 
Q 1547 4250 1301 3770 
Q 1056 3291 1056 2328 
Q 1056 1369 1301 889 
Q 1547 409 2034 409 
Q 2525 409 2770 889 
Q 3016 1369 3016 2328 
Q 3016 3291 2770 3770 
Q 2525 4250 2034 4250 
z
M 2034 4750 
Q 2819 4750 3233 4129 
Q 3647 3509 3647 2328 
Q 3647 1150 3233 529 
Q 2819 -91 2034 -91 
Q 1250 -91 836 529 
Q 422 1150 422 2328 
Q 422 3509 836 4129 
Q 1250 4750 2034 4750 
z
" transform="scale(0.015625)"/>
        <path id="DejaVuSans-2e" d="M 684 794 
L 1344 794 
L 1344 0 
L 684 0 
L 684 794 
z
" transform="scale(0.015625)"/>
       </defs>
       <use xlink:href="#DejaVuSans-30"/>
       <use xlink:href="#DejaVuSans-2e" transform="translate(63.623047 0)"/>
       <use xlink:href="#DejaVuSans-37" transform="translate(95.410156 0)"/>
       <use xlink:href="#DejaVuSans-35" transform="translate(159.033203 0)"/>
      </g>
     </g>
    </g>
    <g id="ytick_2">
     <g id="line2d_9">
      <path d="M 50.7075 317.043668 
L 424.5255 317.043668 
" clip-path="url(#p1a6f7e61e1)" style="fill: none; stroke: #cccccc; stroke-width: 0.8; stroke-linecap: round"/>
     </g>
     <g id="text_10">
      <!-- 1.00 -->
      <g style="fill: #262626" transform="translate(22.81375 320.386981) scale(0.088 -0.088)">
       <use xlink:href="#DejaVuSans-31"/>
       <use xlink:href="#DejaVuSans-2e" transform="translate(63.623047 0)"/>
       <use xlink:href="#DejaVuSans-30" transform="translate(95.410156 0)"/>
       <use xlink:href="#DejaVuSans-30" transform="translate(159.033203 0)"/>
      </g>
     </g>
    </g>
    <g id="ytick_3">
     <g id="line2d_10">
      <path d="M 50.7075 273.638338 
L 424.5255 273.638338 
" clip-path="url(#p1a6f7e61e1)" style="fill: none; stroke: #cccccc; stroke-width: 0.8; stroke-linecap: round"/>
     </g>
     <g id="text_11">
      <!-- 1.25 -->
      <g style="fill: #262626" transform="translate(22.81375 276.98165) scale(0.088 -0.088)">
       <use xlink:href="#DejaVuSans-31"/>
       <use xlink:href="#DejaVuSans-2e" transform="translate(63.623047 0)"/>
       <use xlink:href="#DejaVuSans-32" transform="translate(95.410156 0)"/>
       <use xlink:href="#DejaVuSans-35" transform="translate(159.033203 0)"/>
      </g>
     </g>
    </g>
    <g id="ytick_4">
     <g id="line2d_11">
      <path d="M 50.7075 230.233008 
L 424.5255 230.233008 
" clip-path="url(#p1a6f7e61e1)" style="fill: none; stroke: #cccccc; stroke-width: 0.8; stroke-linecap: round"/>
     </g>
     <g id="text_12">
      <!-- 1.50 -->
      <g style="fill: #262626" transform="translate(22.81375 233.57632) scale(0.088 -0.088)">
       <use xlink:href="#DejaVuSans-31"/>
       <use xlink:href="#DejaVuSans-2e" transform="translate(63.623047 0)"/>
       <use xlink:href="#DejaVuSans-35" transform="translate(95.410156 0)"/>
       <use xlink:href="#DejaVuSans-30" transform="translate(159.033203 0)"/>
      </g>
     </g>
    </g>
    <g id="ytick_5">
     <g id="line2d_12">
      <path d="M 50.7075 186.827678 
L 424.5255 186.827678 
" clip-path="url(#p1a6f7e61e1)" style="fill: none; stroke: #cccccc; stroke-width: 0.8; stroke-linecap: round"/>
     </g>
     <g id="text_13">
      <!-- 1.75 -->
      <g style="fill: #262626" transform="translate(22.81375 190.17099) scale(0.088 -0.088)">
       <use xlink:href="#DejaVuSans-31"/>
       <use xlink:href="#DejaVuSans-2e" transform="translate(63.623047 0)"/>
       <use xlink:href="#DejaVuSans-37" transform="translate(95.410156 0)"/>
       <use xlink:href="#DejaVuSans-35" transform="translate(159.033203 0)"/>
      </g>
     </g>
    </g>
    <g id="ytick_6">
     <g id="line2d_13">
      <path d="M 50.7075 143.422347 
L 424.5255 143.422347 
" clip-path="url(#p1a6f7e61e1)" style="fill: none; stroke: #cccccc; stroke-width: 0.8; stroke-linecap: round"/>
     </g>
     <g id="text_14">
      <!-- 2.00 -->
      <g style="fill: #262626" transform="translate(22.81375 146.76566) scale(0.088 -0.088)">
       <use xlink:href="#DejaVuSans-32"/>
       <use xlink:href="#DejaVuSans-2e" transform="translate(63.623047 0)"/>
       <use xlink:href="#DejaVuSans-30" transform="translate(95.410156 0)"/>
       <use xlink:href="#DejaVuSans-30" transform="translate(159.033203 0)"/>
      </g>
     </g>
    </g>
    <g id="ytick_7">
     <g id="line2d_14">
      <path d="M 50.7075 100.017017 
L 424.5255 100.017017 
" clip-path="url(#p1a6f7e61e1)" style="fill: none; stroke: #cccccc; stroke-width: 0.8; stroke-linecap: round"/>
     </g>
     <g id="text_15">
      <!-- 2.25 -->
      <g style="fill: #262626" transform="translate(22.81375 103.36033) scale(0.088 -0.088)">
       <use xlink:href="#DejaVuSans-32"/>
       <use xlink:href="#DejaVuSans-2e" transform="translate(63.623047 0)"/>
       <use xlink:href="#DejaVuSans-32" transform="translate(95.410156 0)"/>
       <use xlink:href="#DejaVuSans-35" transform="translate(159.033203 0)"/>
      </g>
     </g>
    </g>
    <g id="ytick_8">
     <g id="line2d_15">
      <path d="M 50.7075 56.611687 
L 424.5255 56.611687 
" clip-path="url(#p1a6f7e61e1)" style="fill: none; stroke: #cccccc; stroke-width: 0.8; stroke-linecap: round"/>
     </g>
     <g id="text_16">
      <!-- 2.50 -->
      <g style="fill: #262626" transform="translate(22.81375 59.955) scale(0.088 -0.088)">
       <use xlink:href="#DejaVuSans-32"/>
       <use xlink:href="#DejaVuSans-2e" transform="translate(63.623047 0)"/>
       <use xlink:href="#DejaVuSans-35" transform="translate(95.410156 0)"/>
       <use xlink:href="#DejaVuSans-30" transform="translate(159.033203 0)"/>
      </g>
     </g>
    </g>
    <g id="text_17">
     <!-- Distance -->
     <g style="fill: #262626" transform="translate(16.318125 236.589) rotate(-90) scale(0.12 -0.12)">
      <defs>
       <path id="DejaVuSans-44" d="M 1259 4147 
L 1259 519 
L 2022 519 
Q 2988 519 3436 956 
Q 3884 1394 3884 2338 
Q 3884 3275 3436 3711 
Q 2988 4147 2022 4147 
L 1259 4147 
z
M 628 4666 
L 1925 4666 
Q 3281 4666 3915 4102 
Q 4550 3538 4550 2338 
Q 4550 1131 3912 565 
Q 3275 0 1925 0 
L 628 0 
L 628 4666 
z
" transform="scale(0.015625)"/>
       <path id="DejaVuSans-63" d="M 3122 3366 
L 3122 2828 
Q 2878 2963 2633 3030 
Q 2388 3097 2138 3097 
Q 1578 3097 1268 2742 
Q 959 2388 959 1747 
Q 959 1106 1268 751 
Q 1578 397 2138 397 
Q 2388 397 2633 464 
Q 2878 531 3122 666 
L 3122 134 
Q 2881 22 2623 -34 
Q 2366 -91 2075 -91 
Q 1284 -91 818 406 
Q 353 903 353 1747 
Q 353 2603 823 3093 
Q 1294 3584 2113 3584 
Q 2378 3584 2631 3529 
Q 2884 3475 3122 3366 
z
" transform="scale(0.015625)"/>
       <path id="DejaVuSans-65" d="M 3597 1894 
L 3597 1613 
L 953 1613 
Q 991 1019 1311 708 
Q 1631 397 2203 397 
Q 2534 397 2845 478 
Q 3156 559 3463 722 
L 3463 178 
Q 3153 47 2828 -22 
Q 2503 -91 2169 -91 
Q 1331 -91 842 396 
Q 353 884 353 1716 
Q 353 2575 817 3079 
Q 1281 3584 2069 3584 
Q 2775 3584 3186 3129 
Q 3597 2675 3597 1894 
z
M 3022 2063 
Q 3016 2534 2758 2815 
Q 2500 3097 2075 3097 
Q 1594 3097 1305 2825 
Q 1016 2553 972 2059 
L 3022 2063 
z
" transform="scale(0.015625)"/>
      </defs>
      <use xlink:href="#DejaVuSans-44"/>
      <use xlink:href="#DejaVuSans-69" transform="translate(77.001953 0)"/>
      <use xlink:href="#DejaVuSans-73" transform="translate(104.785156 0)"/>
      <use xlink:href="#DejaVuSans-74" transform="translate(156.884766 0)"/>
      <use xlink:href="#DejaVuSans-61" transform="translate(196.09375 0)"/>
      <use xlink:href="#DejaVuSans-6e" transform="translate(257.373047 0)"/>
      <use xlink:href="#DejaVuSans-63" transform="translate(320.751953 0)"/>
      <use xlink:href="#DejaVuSans-65" transform="translate(375.732422 0)"/>
     </g>
    </g>
   </g>
   <g id="PathCollection_1">
    <path d="M 67.699227 301.861695 
C 68.670546 301.861695 69.602213 301.475786 70.289039 300.78896 
C 70.975865 300.102134 71.361774 299.170467 71.361774 298.199148 
C 71.361774 297.22783 70.975865 296.296163 70.289039 295.609337 
C 69.602213 294.922511 68.670546 294.536602 67.699227 294.536602 
C 66.727909 294.536602 65.796242 294.922511 65.109416 295.609337 
C 64.42259 296.296163 64.036681 297.22783 64.036681 298.199148 
C 64.036681 299.170467 64.42259 300.102134 65.109416 300.78896 
C 65.796242 301.475786 66.727909 301.861695 67.699227 301.861695 
z
" clip-path="url(#p1a6f7e61e1)" style="fill: #1f77b4; stroke: #ffffff; stroke-width: 0.555376"/>
    <path d="M 124.338318 374.769005 
C 125.176964 374.769005 125.981374 374.435807 126.574386 373.842795 
C 127.167398 373.249783 127.500596 372.445373 127.500596 371.606727 
C 127.500596 370.768081 127.167398 369.963671 126.574386 369.370659 
C 125.981374 368.777647 125.176964 368.44445 124.338318 368.44445 
C 123.499672 368.44445 122.695262 368.777647 122.10225 369.370659 
C 121.509238 369.963671 121.176041 370.768081 121.176041 371.606727 
C 121.176041 372.445373 121.509238 373.249783 122.10225 373.842795 
C 122.695262 374.435807 123.499672 374.769005 124.338318 374.769005 
z
" clip-path="url(#p1a6f7e61e1)" style="fill: #1f77b4; stroke: #ffffff; stroke-width: 0.555376"/>
    <path d="M 180.977409 182.935361 
C 182.13273 182.935361 183.240887 182.476347 184.057822 181.659412 
C 184.874756 180.842477 185.33377 179.73432 185.33377 178.579 
C 185.33377 177.423679 184.874756 176.315522 184.057822 175.498587 
C 183.240887 174.681653 182.13273 174.222639 180.977409 174.222639 
C 179.822089 174.222639 178.713932 174.681653 177.896997 175.498587 
C 177.080062 176.315522 176.621048 177.423679 176.621048 178.579 
C 176.621048 179.73432 177.080062 180.842477 177.896997 181.659412 
C 178.713932 182.476347 179.822089 182.935361 180.977409 182.935361 
z
" clip-path="url(#p1a6f7e61e1)" style="fill: #1f77b4; stroke: #ffffff; stroke-width: 0.555376"/>
    <path d="M 237.6165 214.426154 
C 238.726089 214.426154 239.790381 213.98531 240.574979 213.200712 
C 241.359577 212.416114 241.800421 211.351822 241.800421 210.242233 
C 241.800421 209.132644 241.359577 208.068352 240.574979 207.283754 
C 239.790381 206.499156 238.726089 206.058312 237.6165 206.058312 
C 236.506911 206.058312 235.442619 206.499156 234.658021 207.283754 
C 233.873423 208.068352 233.432579 209.132644 233.432579 210.242233 
C 233.432579 211.351822 233.873423 212.416114 234.658021 213.200712 
C 235.442619 213.98531 236.506911 214.426154 237.6165 214.426154 
z
" clip-path="url(#p1a6f7e61e1)" style="fill: #1f77b4; stroke: #ffffff; stroke-width: 0.555376"/>
    <path d="M 294.255591 54.101273 
C 295.581606 54.101273 296.85349 53.574441 297.791125 52.636807 
C 298.728759 51.699172 299.255591 50.427288 299.255591 49.101273 
C 299.255591 47.775257 298.728759 46.503373 297.791125 45.565739 
C 296.85349 44.628104 295.581606 44.101273 294.255591 44.101273 
C 292.929575 44.101273 291.657692 44.628104 290.720057 45.565739 
C 289.782422 46.503373 289.255591 47.775257 289.255591 49.101273 
C 289.255591 50.427288 289.782422 51.699172 290.720057 52.636807 
C 291.657692 53.574441 292.929575 54.101273 294.255591 54.101273 
z
" clip-path="url(#p1a6f7e61e1)" style="fill: #1f77b4; stroke: #ffffff; stroke-width: 0.555376"/>
    <path d="M 350.894682 210.11332 
C 352.010645 210.11332 353.081052 209.669943 353.870157 208.880837 
C 354.659263 208.091732 355.10264 207.021325 355.10264 205.905362 
C 355.10264 204.789398 354.659263 203.718991 353.870157 202.929886 
C 353.081052 202.140781 352.010645 201.697404 350.894682 201.697404 
C 349.778718 201.697404 348.708312 202.140781 347.919206 202.929886 
C 347.130101 203.718991 346.686724 204.789398 346.686724 205.905362 
C 346.686724 207.021325 347.130101 208.091732 347.919206 208.880837 
C 348.708312 209.669943 349.778718 210.11332 350.894682 210.11332 
z
" clip-path="url(#p1a6f7e61e1)" style="fill: #1f77b4; stroke: #ffffff; stroke-width: 0.555376"/>
    <path d="M 407.533773 114.676177 
C 408.782455 114.676177 409.980164 114.18007 410.863116 113.297118 
C 411.746068 112.414166 412.242175 111.216458 412.242175 109.967775 
C 412.242175 108.719092 411.746068 107.521384 410.863116 106.638432 
C 409.980164 105.75548 408.782455 105.259373 407.533773 105.259373 
C 406.28509 105.259373 405.087382 105.75548 404.20443 106.638432 
C 403.321478 107.521384 402.825371 108.719092 402.825371 109.967775 
C 402.825371 111.216458 403.321478 112.414166 404.20443 113.297118 
C 405.087382 114.18007 406.28509 114.676177 407.533773 114.676177 
z
" clip-path="url(#p1a6f7e61e1)" style="fill: #1f77b4; stroke: #ffffff; stroke-width: 0.555376"/>
   </g>
   <g id="line2d_16"/>
   <g id="line2d_17"/>
   <g id="line2d_18"/>
   <g id="line2d_19"/>
   <g id="line2d_20"/>
   <g id="patch_3">
    <path d="M 50.7075 387.732 
L 50.7075 32.976 
" style="fill: none; stroke: #cccccc; stroke-linejoin: miter; stroke-linecap: square"/>
   </g>
   <g id="patch_4">
    <path d="M 424.5255 387.732 
L 424.5255 32.976 
" style="fill: none; stroke: #cccccc; stroke-linejoin: miter; stroke-linecap: square"/>
   </g>
   <g id="patch_5">
    <path d="M 50.7075 387.732 
L 424.5255 387.732 
" style="fill: none; stroke: #cccccc; stroke-linejoin: miter; stroke-linecap: square"/>
   </g>
   <g id="patch_6">
    <path d="M 50.7075 32.976 
L 424.5255 32.976 
" style="fill: none; stroke: #cccccc; stroke-linejoin: miter; stroke-linecap: square"/>
   </g>
   <g id="legend_1">
    <g id="patch_7">
     <path d="M 56.8675 104.59975 
L 99.02225 104.59975 
Q 100.78225 104.59975 100.78225 102.83975 
L 100.78225 39.136 
Q 100.78225 37.376 99.02225 37.376 
L 56.8675 37.376 
Q 55.1075 37.376 55.1075 39.136 
L 55.1075 102.83975 
Q 55.1075 104.59975 56.8675 104.59975 
z
" style="fill: #ffffff; opacity: 0.8; stroke: #cccccc; stroke-width: 0.8; stroke-linejoin: miter"/>
    </g>
    <g id="line2d_21">
     <defs>
      <path id="m0c0e774986" d="M 0 3.304954 
C 0.876484 3.304954 1.717187 2.956723 2.336955 2.336955 
C 2.956723 1.717187 3.304954 0.876484 3.304954 0 
C 3.304954 -0.876484 2.956723 -1.717187 2.336955 -2.336955 
C 1.717187 -2.956723 0.876484 -3.304954 0 -3.304954 
C -0.876484 -3.304954 -1.717187 -2.956723 -2.336955 -2.336955 
C -2.956723 -1.717187 -3.304954 -0.876484 -3.304954 0 
C -3.304954 0.876484 -2.956723 1.717187 -2.336955 2.336955 
C -1.717187 2.956723 -0.876484 3.304954 0 3.304954 
z
" style="stroke: #ffffff; stroke-width: 0.555376"/>
     </defs>
     <g>
      <use xlink:href="#m0c0e774986" x="67.4275" y="44.502625" style="fill: #1f77b4; stroke: #ffffff; stroke-width: 0.555376"/>
     </g>
    </g>
    <g id="text_18">
     <!-- 0.8 -->
     <g style="fill: #262626" transform="translate(83.2675 47.582625) scale(0.088 -0.088)">
      <defs>
       <path id="DejaVuSans-38" d="M 2034 2216 
Q 1584 2216 1326 1975 
Q 1069 1734 1069 1313 
Q 1069 891 1326 650 
Q 1584 409 2034 409 
Q 2484 409 2743 651 
Q 3003 894 3003 1313 
Q 3003 1734 2745 1975 
Q 2488 2216 2034 2216 
z
M 1403 2484 
Q 997 2584 770 2862 
Q 544 3141 544 3541 
Q 544 4100 942 4425 
Q 1341 4750 2034 4750 
Q 2731 4750 3128 4425 
Q 3525 4100 3525 3541 
Q 3525 3141 3298 2862 
Q 3072 2584 2669 2484 
Q 3125 2378 3379 2068 
Q 3634 1759 3634 1313 
Q 3634 634 3220 271 
Q 2806 -91 2034 -91 
Q 1263 -91 848 271 
Q 434 634 434 1313 
Q 434 1759 690 2068 
Q 947 2378 1403 2484 
z
M 1172 3481 
Q 1172 3119 1398 2916 
Q 1625 2713 2034 2713 
Q 2441 2713 2670 2916 
Q 2900 3119 2900 3481 
Q 2900 3844 2670 4047 
Q 2441 4250 2034 4250 
Q 1625 4250 1398 4047 
Q 1172 3844 1172 3481 
z
" transform="scale(0.015625)"/>
      </defs>
      <use xlink:href="#DejaVuSans-30"/>
      <use xlink:href="#DejaVuSans-2e" transform="translate(63.623047 0)"/>
      <use xlink:href="#DejaVuSans-38" transform="translate(95.410156 0)"/>
     </g>
    </g>
    <g id="line2d_22">
     <defs>
      <path id="m270403069e" d="M 0 3.762025 
C 0.997701 3.762025 1.954672 3.365634 2.660153 2.660153 
C 3.365634 1.954672 3.762025 0.997701 3.762025 0 
C 3.762025 -0.997701 3.365634 -1.954672 2.660153 -2.660153 
C 1.954672 -3.365634 0.997701 -3.762025 0 -3.762025 
C -0.997701 -3.762025 -1.954672 -3.365634 -2.660153 -2.660153 
C -3.365634 -1.954672 -3.762025 -0.997701 -3.762025 0 
C -3.762025 0.997701 -3.365634 1.954672 -2.660153 2.660153 
C -1.954672 3.365634 -0.997701 3.762025 0 3.762025 
z
" style="stroke: #ffffff; stroke-width: 0.555376"/>
     </defs>
     <g>
      <use xlink:href="#m270403069e" x="67.4275" y="57.419375" style="fill: #1f77b4; stroke: #ffffff; stroke-width: 0.555376"/>
     </g>
    </g>
    <g id="text_19">
     <!-- 1.2 -->
     <g style="fill: #262626" transform="translate(83.2675 60.499375) scale(0.088 -0.088)">
      <use xlink:href="#DejaVuSans-31"/>
      <use xlink:href="#DejaVuSans-2e" transform="translate(63.623047 0)"/>
      <use xlink:href="#DejaVuSans-32" transform="translate(95.410156 0)"/>
     </g>
    </g>
    <g id="line2d_23">
     <defs>
      <path id="m387d2416b6" d="M 0 4.169285 
C 1.105707 4.169285 2.166277 3.729983 2.94813 2.94813 
C 3.729983 2.166277 4.169285 1.105707 4.169285 0 
C 4.169285 -1.105707 3.729983 -2.166277 2.94813 -2.94813 
C 2.166277 -3.729983 1.105707 -4.169285 0 -4.169285 
C -1.105707 -4.169285 -2.166277 -3.729983 -2.94813 -2.94813 
C -3.729983 -2.166277 -4.169285 -1.105707 -4.169285 0 
C -4.169285 1.105707 -3.729983 2.166277 -2.94813 2.94813 
C -2.166277 3.729983 -1.105707 4.169285 0 4.169285 
z
" style="stroke: #ffffff; stroke-width: 0.555376"/>
     </defs>
     <g>
      <use xlink:href="#m387d2416b6" x="67.4275" y="70.336125" style="fill: #1f77b4; stroke: #ffffff; stroke-width: 0.555376"/>
     </g>
    </g>
    <g id="text_20">
     <!-- 1.6 -->
     <g style="fill: #262626" transform="translate(83.2675 73.416125) scale(0.088 -0.088)">
      <use xlink:href="#DejaVuSans-31"/>
      <use xlink:href="#DejaVuSans-2e" transform="translate(63.623047 0)"/>
      <use xlink:href="#DejaVuSans-36" transform="translate(95.410156 0)"/>
     </g>
    </g>
    <g id="line2d_24">
     <defs>
      <path id="m9fc9ec2700" d="M 0 4.540159 
C 1.204064 4.540159 2.358975 4.06178 3.210378 3.210378 
C 4.06178 2.358975 4.540159 1.204064 4.540159 0 
C 4.540159 -1.204064 4.06178 -2.358975 3.210378 -3.210378 
C 2.358975 -4.06178 1.204064 -4.540159 0 -4.540159 
C -1.204064 -4.540159 -2.358975 -4.06178 -3.210378 -3.210378 
C -4.06178 -2.358975 -4.540159 -1.204064 -4.540159 0 
C -4.540159 1.204064 -4.06178 2.358975 -3.210378 3.210378 
C -2.358975 4.06178 -1.204064 4.540159 0 4.540159 
z
" style="stroke: #ffffff; stroke-width: 0.555376"/>
     </defs>
     <g>
      <use xlink:href="#m9fc9ec2700" x="67.4275" y="83.252875" style="fill: #1f77b4; stroke: #ffffff; stroke-width: 0.555376"/>
     </g>
    </g>
    <g id="text_21">
     <!-- 2.0 -->
     <g style="fill: #262626" transform="translate(83.2675 86.332875) scale(0.088 -0.088)">
      <use xlink:href="#DejaVuSans-32"/>
      <use xlink:href="#DejaVuSans-2e" transform="translate(63.623047 0)"/>
      <use xlink:href="#DejaVuSans-30" transform="translate(95.410156 0)"/>
     </g>
    </g>
    <g id="line2d_25">
     <defs>
      <path id="m9d56d004d5" d="M 0 4.882946 
C 1.294972 4.882946 2.53708 4.368448 3.452764 3.452764 
C 4.368448 2.53708 4.882946 1.294972 4.882946 0 
C 4.882946 -1.294972 4.368448 -2.53708 3.452764 -3.452764 
C 2.53708 -4.368448 1.294972 -4.882946 0 -4.882946 
C -1.294972 -4.882946 -2.53708 -4.368448 -3.452764 -3.452764 
C -4.368448 -2.53708 -4.882946 -1.294972 -4.882946 0 
C -4.882946 1.294972 -4.368448 2.53708 -3.452764 3.452764 
C -2.53708 4.368448 -1.294972 4.882946 0 4.882946 
z
" style="stroke: #ffffff; stroke-width: 0.555376"/>
     </defs>
     <g>
      <use xlink:href="#m9d56d004d5" x="67.4275" y="96.169625" style="fill: #1f77b4; stroke: #ffffff; stroke-width: 0.555376"/>
     </g>
    </g>
    <g id="text_22">
     <!-- 2.4 -->
     <g style="fill: #262626" transform="translate(83.2675 99.249625) scale(0.088 -0.088)">
      <use xlink:href="#DejaVuSans-32"/>
      <use xlink:href="#DejaVuSans-2e" transform="translate(63.623047 0)"/>
      <use xlink:href="#DejaVuSans-34" transform="translate(95.410156 0)"/>
     </g>
    </g>
   </g>
  </g>
  <g id="axes_2">
   <g id="patch_8">
    <path d="M 477.5235 387.732 
L 851.3415 387.732 
L 851.3415 32.976 
L 477.5235 32.976 
z
" style="fill: #ffffff"/>
   </g>
   <g id="matplotlib.axis_3">
    <g id="xtick_8"/>
    <g id="text_23">
     <!-- Point Pairs -->
     <g style="fill: #262626" transform="translate(633.34875 409.150125) scale(0.12 -0.12)">
      <use xlink:href="#DejaVuSans-50"/>
      <use xlink:href="#DejaVuSans-6f" transform="translate(56.677734 0)"/>
      <use xlink:href="#DejaVuSans-69" transform="translate(117.859375 0)"/>
      <use xlink:href="#DejaVuSans-6e" transform="translate(145.642578 0)"/>
      <use xlink:href="#DejaVuSans-74" transform="translate(209.021484 0)"/>
      <use xlink:href="#DejaVuSans-20" transform="translate(248.230469 0)"/>
      <use xlink:href="#DejaVuSans-50" transform="translate(280.017578 0)"/>
      <use xlink:href="#DejaVuSans-61" transform="translate(335.820312 0)"/>
      <use xlink:href="#DejaVuSans-69" transform="translate(397.099609 0)"/>
      <use xlink:href="#DejaVuSans-72" transform="translate(424.882812 0)"/>
      <use xlink:href="#DejaVuSans-73" transform="translate(465.996094 0)"/>
     </g>
    </g>
   </g>
   <g id="matplotlib.axis_4">
    <g id="ytick_9">
     <g id="text_24">
      <!-- 0.75 -->
      <g style="fill: #262626" transform="translate(449.62975 363.792311) scale(0.088 -0.088)">
       <use xlink:href="#DejaVuSans-30"/>
       <use xlink:href="#DejaVuSans-2e" transform="translate(63.623047 0)"/>
       <use xlink:href="#DejaVuSans-37" transform="translate(95.410156 0)"/>
       <use xlink:href="#DejaVuSans-35" transform="translate(159.033203 0)"/>
      </g>
     </g>
    </g>
    <g id="ytick_10">
     <g id="text_25">
      <!-- 1.00 -->
      <g style="fill: #262626" transform="translate(449.62975 320.386981) scale(0.088 -0.088)">
       <use xlink:href="#DejaVuSans-31"/>
       <use xlink:href="#DejaVuSans-2e" transform="translate(63.623047 0)"/>
       <use xlink:href="#DejaVuSans-30" transform="translate(95.410156 0)"/>
       <use xlink:href="#DejaVuSans-30" transform="translate(159.033203 0)"/>
      </g>
     </g>
    </g>
    <g id="ytick_11">
     <g id="text_26">
      <!-- 1.25 -->
      <g style="fill: #262626" transform="translate(449.62975 276.98165) scale(0.088 -0.088)">
       <use xlink:href="#DejaVuSans-31"/>
       <use xlink:href="#DejaVuSans-2e" transform="translate(63.623047 0)"/>
       <use xlink:href="#DejaVuSans-32" transform="translate(95.410156 0)"/>
       <use xlink:href="#DejaVuSans-35" transform="translate(159.033203 0)"/>
      </g>
     </g>
    </g>
    <g id="ytick_12">
     <g id="text_27">
      <!-- 1.50 -->
      <g style="fill: #262626" transform="translate(449.62975 233.57632) scale(0.088 -0.088)">
       <use xlink:href="#DejaVuSans-31"/>
       <use xlink:href="#DejaVuSans-2e" transform="translate(63.623047 0)"/>
       <use xlink:href="#DejaVuSans-35" transform="translate(95.410156 0)"/>
       <use xlink:href="#DejaVuSans-30" transform="translate(159.033203 0)"/>
      </g>
     </g>
    </g>
    <g id="ytick_13">
     <g id="text_28">
      <!-- 1.75 -->
      <g style="fill: #262626" transform="translate(449.62975 190.17099) scale(0.088 -0.088)">
       <use xlink:href="#DejaVuSans-31"/>
       <use xlink:href="#DejaVuSans-2e" transform="translate(63.623047 0)"/>
       <use xlink:href="#DejaVuSans-37" transform="translate(95.410156 0)"/>
       <use xlink:href="#DejaVuSans-35" transform="translate(159.033203 0)"/>
      </g>
     </g>
    </g>
    <g id="ytick_14">
     <g id="text_29">
      <!-- 2.00 -->
      <g style="fill: #262626" transform="translate(449.62975 146.76566) scale(0.088 -0.088)">
       <use xlink:href="#DejaVuSans-32"/>
       <use xlink:href="#DejaVuSans-2e" transform="translate(63.623047 0)"/>
       <use xlink:href="#DejaVuSans-30" transform="translate(95.410156 0)"/>
       <use xlink:href="#DejaVuSans-30" transform="translate(159.033203 0)"/>
      </g>
     </g>
    </g>
    <g id="ytick_15">
     <g id="text_30">
      <!-- 2.25 -->
      <g style="fill: #262626" transform="translate(449.62975 103.36033) scale(0.088 -0.088)">
       <use xlink:href="#DejaVuSans-32"/>
       <use xlink:href="#DejaVuSans-2e" transform="translate(63.623047 0)"/>
       <use xlink:href="#DejaVuSans-32" transform="translate(95.410156 0)"/>
       <use xlink:href="#DejaVuSans-35" transform="translate(159.033203 0)"/>
      </g>
     </g>
    </g>
    <g id="ytick_16">
     <g id="text_31">
      <!-- 2.50 -->
      <g style="fill: #262626" transform="translate(449.62975 59.955) scale(0.088 -0.088)">
       <use xlink:href="#DejaVuSans-32"/>
       <use xlink:href="#DejaVuSans-2e" transform="translate(63.623047 0)"/>
       <use xlink:href="#DejaVuSans-35" transform="translate(95.410156 0)"/>
       <use xlink:href="#DejaVuSans-30" transform="translate(159.033203 0)"/>
      </g>
     </g>
    </g>
    <g id="text_32">
     <!-- Distance -->
     <g style="fill: #262626" transform="translate(443.134125 236.589) rotate(-90) scale(0.12 -0.12)">
      <use xlink:href="#DejaVuSans-44"/>
      <use xlink:href="#DejaVuSans-69" transform="translate(77.001953 0)"/>
      <use xlink:href="#DejaVuSans-73" transform="translate(104.785156 0)"/>
      <use xlink:href="#DejaVuSans-74" transform="translate(156.884766 0)"/>
      <use xlink:href="#DejaVuSans-61" transform="translate(196.09375 0)"/>
      <use xlink:href="#DejaVuSans-6e" transform="translate(257.373047 0)"/>
      <use xlink:href="#DejaVuSans-63" transform="translate(320.751953 0)"/>
      <use xlink:href="#DejaVuSans-65" transform="translate(375.732422 0)"/>
     </g>
    </g>
   </g>
   <g id="patch_9">
    <path d="M 514.9053 254.220691 
L 813.9597 254.220691 
L 813.9597 144.273388 
L 514.9053 144.273388 
L 514.9053 254.220691 
z
" clip-path="url(#p4db73ee990)" style="fill: #3274a1; stroke: #3f3f3f; stroke-linejoin: miter"/>
   </g>
   <g id="line2d_26">
    <path d="M 664.4325 254.220691 
L 664.4325 371.606727 
" clip-path="url(#p4db73ee990)" style="fill: none; stroke: #3f3f3f"/>
   </g>
   <g id="line2d_27">
    <path d="M 664.4325 144.273388 
L 664.4325 49.101273 
" clip-path="url(#p4db73ee990)" style="fill: none; stroke: #3f3f3f"/>
   </g>
   <g id="line2d_28">
    <path d="M 589.6689 371.606727 
L 739.1961 371.606727 
" clip-path="url(#p4db73ee990)" style="fill: none; stroke: #3f3f3f; stroke-linecap: round"/>
   </g>
   <g id="line2d_29">
    <path d="M 589.6689 49.101273 
L 739.1961 49.101273 
" clip-path="url(#p4db73ee990)" style="fill: none; stroke: #3f3f3f; stroke-linecap: round"/>
   </g>
   <g id="line2d_30"/>
   <g id="line2d_31">
    <path d="M 514.9053 205.905362 
L 813.9597 205.905362 
" clip-path="url(#p4db73ee990)" style="fill: none; stroke: #3f3f3f"/>
   </g>
   <g id="patch_10">
    <path d="M 477.5235 387.732 
L 477.5235 32.976 
" style="fill: none; stroke: #cccccc; stroke-linejoin: miter; stroke-linecap: square"/>
   </g>
   <g id="patch_11">
    <path d="M 851.3415 387.732 
L 851.3415 32.976 
" style="fill: none; stroke: #cccccc; stroke-linejoin: miter; stroke-linecap: square"/>
   </g>
   <g id="patch_12">
    <path d="M 477.5235 387.732 
L 851.3415 387.732 
" style="fill: none; stroke: #cccccc; stroke-linejoin: miter; stroke-linecap: square"/>
   </g>
   <g id="patch_13">
    <path d="M 477.5235 32.976 
L 851.3415 32.976 
" style="fill: none; stroke: #cccccc; stroke-linejoin: miter; stroke-linecap: square"/>
   </g>
  </g>
  <g id="text_33">
   <!-- Distances Between Point Pairs -->
   <g style="fill: #262626" transform="translate(324.112312 17.837812) scale(0.14 -0.14)">
    <defs>
     <path id="DejaVuSans-42" d="M 1259 2228 
L 1259 519 
L 2272 519 
Q 2781 519 3026 730 
Q 3272 941 3272 1375 
Q 3272 1813 3026 2020 
Q 2781 2228 2272 2228 
L 1259 2228 
z
M 1259 4147 
L 1259 2741 
L 2194 2741 
Q 2656 2741 2882 2914 
Q 3109 3088 3109 3444 
Q 3109 3797 2882 3972 
Q 2656 4147 2194 4147 
L 1259 4147 
z
M 628 4666 
L 2241 4666 
Q 2963 4666 3353 4366 
Q 3744 4066 3744 3513 
Q 3744 3084 3544 2831 
Q 3344 2578 2956 2516 
Q 3422 2416 3680 2098 
Q 3938 1781 3938 1306 
Q 3938 681 3513 340 
Q 3088 0 2303 0 
L 628 0 
L 628 4666 
z
" transform="scale(0.015625)"/>
     <path id="DejaVuSans-77" d="M 269 3500 
L 844 3500 
L 1563 769 
L 2278 3500 
L 2956 3500 
L 3675 769 
L 4391 3500 
L 4966 3500 
L 4050 0 
L 3372 0 
L 2619 2869 
L 1863 0 
L 1184 0 
L 269 3500 
z
" transform="scale(0.015625)"/>
    </defs>
    <use xlink:href="#DejaVuSans-44"/>
    <use xlink:href="#DejaVuSans-69" transform="translate(77.001953 0)"/>
    <use xlink:href="#DejaVuSans-73" transform="translate(104.785156 0)"/>
    <use xlink:href="#DejaVuSans-74" transform="translate(156.884766 0)"/>
    <use xlink:href="#DejaVuSans-61" transform="translate(196.09375 0)"/>
    <use xlink:href="#DejaVuSans-6e" transform="translate(257.373047 0)"/>
    <use xlink:href="#DejaVuSans-63" transform="translate(320.751953 0)"/>
    <use xlink:href="#DejaVuSans-65" transform="translate(375.732422 0)"/>
    <use xlink:href="#DejaVuSans-73" transform="translate(437.255859 0)"/>
    <use xlink:href="#DejaVuSans-20" transform="translate(489.355469 0)"/>
    <use xlink:href="#DejaVuSans-42" transform="translate(521.142578 0)"/>
    <use xlink:href="#DejaVuSans-65" transform="translate(589.746094 0)"/>
    <use xlink:href="#DejaVuSans-74" transform="translate(651.269531 0)"/>
    <use xlink:href="#DejaVuSans-77" transform="translate(690.478516 0)"/>
    <use xlink:href="#DejaVuSans-65" transform="translate(772.265625 0)"/>
    <use xlink:href="#DejaVuSans-65" transform="translate(833.789062 0)"/>
    <use xlink:href="#DejaVuSans-6e" transform="translate(895.3125 0)"/>
    <use xlink:href="#DejaVuSans-20" transform="translate(958.691406 0)"/>
    <use xlink:href="#DejaVuSans-50" transform="translate(990.478516 0)"/>
    <use xlink:href="#DejaVuSans-6f" transform="translate(1047.15625 0)"/>
    <use xlink:href="#DejaVuSans-69" transform="translate(1108.337891 0)"/>
    <use xlink:href="#DejaVuSans-6e" transform="translate(1136.121094 0)"/>
    <use xlink:href="#DejaVuSans-74" transform="translate(1199.5 0)"/>
    <use xlink:href="#DejaVuSans-20" transform="translate(1238.708984 0)"/>
    <use xlink:href="#DejaVuSans-50" transform="translate(1270.496094 0)"/>
    <use xlink:href="#DejaVuSans-61" transform="translate(1326.298828 0)"/>
    <use xlink:href="#DejaVuSans-69" transform="translate(1387.578125 0)"/>
    <use xlink:href="#DejaVuSans-72" transform="translate(1415.361328 0)"/>
    <use xlink:href="#DejaVuSans-73" transform="translate(1456.474609 0)"/>
   </g>
  </g>
 </g>
 <defs>
  <clipPath id="p1a6f7e61e1">
   <rect x="50.7075" y="32.976" width="373.818" height="354.756"/>
  </clipPath>
  <clipPath id="p4db73ee990">
   <rect x="477.5235" y="32.976" width="373.818" height="354.756"/>
  </clipPath>
 </defs>
</svg>
